HIERARCHY
ROOT Hips
{
	OFFSET -3.958830 18.904000 13.208200
	CHANNELS 6 Xposition Yposition Zposition Zrotation Yrotation Xrotation 
	JOINT LHipJoint
	{
		OFFSET 0.000000 0.000000 0.000000
		CHANNELS 3 Zrotation Yrotation Xrotation
		JOINT LeftUpLeg
		{
			OFFSET 1.800000 -1.400000 0.085000
			CHANNELS 3 Zrotation Yrotation Xrotation
			JOINT LeftLeg
			{
				OFFSET 2.215000 -6.000000 0.000000
				CHANNELS 3 Zrotation Yrotation Xrotation
				JOINT LeftFoot
				{
					OFFSET 2.500000 -6.900000 0.000000
					CHANNELS 3 Zrotation Yrotation Xrotation
					JOINT LeftToeBase
					{
						OFFSET 0.200000 -0.500000 1.950000
						CHANNELS 3 Zrotation Yrotation Xrotation
						End Site
						{
							OFFSET 0.000000 0.000000 0.000000
						}
					}
				}
			}
		}
	}
	JOINT RHipJoint
	{
		OFFSET 0.000000 0.000000 0.000000
		CHANNELS 3 Zrotation Yrotation Xrotation
		JOINT RightUpLeg
		{
			OFFSET -1.800000 -1.400000 0.085000
			CHANNELS 3 Zrotation Yrotation Xrotation
			JOINT RightLeg
			{
				OFFSET -2.215000 -6.000000 0.000000
				CHANNELS 3 Zrotation Yrotation Xrotation
				JOINT RightFoot
				{
					OFFSET -2.500000 -6.900000 0.000000
					CHANNELS 3 Zrotation Yrotation Xrotation
					JOINT RightToeBase
					{
						OFFSET -0.200000 -0.500000 1.950000
						CHANNELS 3 Zrotation Yrotation Xrotation
						End Site
						{
							OFFSET 0.000000 0.000000 0.000000
						}
					}
				}
			}
		}
	}
	JOINT LowerBack
	{
		OFFSET 0.000000 0.000000 0.000000
		CHANNELS 3 Zrotation Yrotation Xrotation
		JOINT Spine
		{
			OFFSET -0.087000 1.940000 -0.288900
			CHANNELS 3 Zrotation Yrotation Xrotation
			JOINT Spine1
			{
				OFFSET 0.000000 1.950000 0.060000
				CHANNELS 3 Zrotation Yrotation Xrotation
				JOINT Neck
				{
					OFFSET 0.000000 0.000000 0.000000
					CHANNELS 3 Zrotation Yrotation Xrotation
					JOINT Neck1
					{
						OFFSET 0.000000 1.600000 0.340000
						CHANNELS 3 Zrotation Yrotation Xrotation
						JOINT Head
						{
							OFFSET 0.000000 1.667000 -0.240000
							CHANNELS 3 Zrotation Yrotation Xrotation
							End Site
							{
								OFFSET 0.000000 0.000000 0.000000
							}
						}
					}
				}
				JOINT LeftShoulder
				{
					OFFSET 0.000000 0.000000 0.000000
					CHANNELS 3 Zrotation Yrotation Xrotation
					JOINT LeftArm
					{
						OFFSET 2.700000 1.550000 -0.730000
						CHANNELS 3 Zrotation Yrotation Xrotation
						JOINT LeftForeArm
						{
							OFFSET 5.450000 0.000000 0.000000
							CHANNELS 3 Zrotation Yrotation Xrotation
							JOINT LeftHand
							{
								OFFSET 3.450000 0.000000 0.000000
								CHANNELS 3 Zrotation Yrotation Xrotation
								JOINT LeftHandIndex1
								{
									OFFSET 0.750000 0.000000 0.000000
									CHANNELS 3 Zrotation Yrotation Xrotation
									End Site
									{
										OFFSET 0.000000 0.000000 0.000000
									}
								}
							}
						}
					}
				}
				JOINT RightShoulder
				{
					OFFSET 0.000000 0.000000 0.000000
					CHANNELS 3 Zrotation Yrotation Xrotation
					JOINT RightArm
					{
						OFFSET -2.700000 1.550000 -0.730000
						CHANNELS 3 Zrotation Yrotation Xrotation
						JOINT RightForeArm
						{
							OFFSET -5.450000 0.000000 0.000000
							CHANNELS 3 Zrotation Yrotation Xrotation
							JOINT RightHand
							{
								OFFSET -3.450000 0.000000 0.000000
								CHANNELS 3 Zrotation Yrotation Xrotation
								JOINT RightHandIndex1
								{
									OFFSET -0.750000 0.000000 0.000000
									CHANNELS 3 Zrotation Yrotation Xrotation
									End Site
									{
										OFFSET 0.000000 0.000000 0.000000
									}
								}
							}
						}
					}
				}
			}
		}
	}
}
MOTION
Frames: 13
Frame Time: 0.016667
-1.358470 16.664690 -3.394730 -2.488017 -11.561182 -2.525659 -15.362619 11.567575 4.501959 31.089193 0.397566 -26.364008 -15.658648 19.391150 39.157084 0.702785 10.244517 0.810578 0.434010 0.482700 0.147360 18.407901 -9.603061 3.115134 -26.076091 3.816911 -33.574386 11.469923 -10.975019 35.341728 -0.368957 -6.191081 1.965955 0.396150 0.119000 0.072880 -3.569092 -0.552055 -8.848774 11.418402 -5.837492 25.384734 -4.390768 -3.674328 12.952863 10.023040 -2.023081 -5.777161 -1.563726 -2.253669 40.650236 -3.445860 -8.387400 -10.563730 -26.063438 -5.065877 2.265769 -48.907440 -1.855551 -9.594665 -27.919624 -34.859931 4.918868 -3.595275 3.290837 0.022260 0.059560 -0.014570 0.198510 8.915167 11.979322 -0.346774 12.040656 43.032715 7.537349 -128.877811 31.684878 -67.958067 2.110768 -1.676910 -0.002980 0.237250 -0.109590 0.058460 
-1.375420 16.653330 -3.403270 -2.536178 -11.655655 -2.486392 -15.376888 11.493971 4.572581 31.583988 0.520962 -26.599322 -16.086627 19.705662 39.225134 0.725632 10.327483 0.774320 0.460720 0.520530 0.166580 18.414034 -9.528027 3.141215 -25.990918 4.021050 -34.010318 11.567015 -11.150694 36.002304 -0.404376 -6.279231 1.931189 0.412200 0.094680 0.076010 -3.567809 -0.549829 -8.896858 11.638728 -5.834181 25.814425 -4.266877 -3.661560 12.770707 10.061438 -1.767336 -5.672226 -1.014526 -2.265816 40.469255 -3.345090 -8.187100 -11.344070 -26.482193 -5.124101 2.339144 -48.607384 -1.619422 -9.737249 -28.660169 -35.517935 5.279569 -3.571052 3.312258 0.028750 0.044840 0.007850 0.202000 9.292149 11.977334 -0.589440 13.484712 43.313371 8.381476 -129.255450 31.918659 -69.334633 2.098342 -1.689717 0.011560 0.230690 -0.127210 0.058310 
-1.393200 16.632930 -3.419010 -2.506170 -11.800601 -2.350283 -15.393996 11.378096 4.659048 32.083881 0.589734 -27.148522 -16.492374 20.132010 39.661651 0.754145 10.456919 0.719880 0.495390 0.561900 0.201150 18.428028 -9.387533 3.225388 -26.419954 4.223136 -34.735883 12.248234 -11.656471 36.791529 -0.466334 -6.465739 1.858471 0.426840 0.050710 0.077570 -3.579336 -0.571688 -8.986429 12.220893 -5.987349 26.501529 -4.117099 -3.726367 12.490093 10.042754 -1.403392 -5.743065 -0.434404 -2.872579 39.962914 -3.394030 -8.495680 -12.889770 -27.020559 -5.694113 2.707025 -48.448746 -0.934479 -10.189989 -29.546907 -36.599905 5.724610 -3.524057 3.333586 0.050010 0.013900 0.042820 0.199750 9.840343 12.475983 -0.714136 15.167150 43.320836 9.033272 -130.392243 32.351072 -72.403311 2.081457 -1.699416 0.029000 0.223610 -0.149370 0.051800 
-1.406700 16.604850 -3.442420 -2.301019 -11.902679 -2.662533 -15.419775 11.430951 4.685563 32.070355 0.499367 -27.422134 -16.224695 20.282765 40.494060 0.794125 10.528056 0.685367 0.502730 0.567050 0.211590 18.408564 -9.285585 3.255989 -26.569405 4.356131 -35.292920 11.853081 -11.831775 38.004079 -0.509329 -6.581051 1.813964 0.408410 0.009640 0.081900 -3.513714 -0.828932 -9.051472 12.432403 -6.345969 27.656757 -3.827098 -3.990746 12.444676 9.845445 -1.632317 -6.206204 -1.091312 -3.087508 40.665545 -3.333580 -9.063090 -13.746770 -27.263001 -6.990391 3.404824 -49.032859 -0.198723 -11.056787 -29.493678 -38.048591 5.848410 -3.467200 3.358917 0.069880 -0.022500 0.072240 0.189980 10.345996 14.136802 -0.459227 15.353731 42.945022 8.458261 -131.404211 32.465092 -74.504508 2.083543 -1.694200 0.054140 0.203360 -0.154990 0.052070 
-1.418700 16.577510 -3.453900 -2.117666 -12.087056 -2.673769 -15.429678 11.414658 4.682402 32.044139 0.439123 -27.534910 -16.124131 20.490889 41.172767 0.801831 10.615178 0.642672 0.518260 0.579780 0.239450 18.412364 -9.187419 3.341097 -26.850358 4.503357 -36.194457 11.797199 -12.183154 39.209939 -0.562442 -6.758712 1.744580 0.409890 -0.029200 0.088230 -3.509001 -0.919563 -9.102614 12.986479 -6.623085 28.199561 -3.745740 -4.168744 12.344711 9.932978 -1.542271 -6.427132 -1.035083 -3.527001 40.531114 -4.028370 -9.275060 -14.959500 -27.333672 -7.549858 3.743781 -49.578427 0.309253 -11.561270 -30.044710 -38.882244 6.084451 -3.440785 3.361669 0.095530 -0.044910 0.099130 0.175410 10.198580 14.693238 -0.388682 16.084573 42.833585 8.540850 -132.486168 32.455912 -76.662074 2.069320 -1.696644 0.063270 0.195000 -0.158290 0.037130 
-1.426080 16.557340 -3.469910 -1.863633 -12.400544 -2.771097 -15.410498 11.387328 4.675278 31.947478 0.426918 -27.517550 -16.154883 20.636448 41.489152 0.820293 10.667671 0.630851 0.514560 0.576030 0.234530 18.433238 -9.179962 3.385548 -26.948078 4.599357 -36.690601 11.530453 -12.254633 39.863298 -0.576907 -6.831749 1.722327 0.407060 -0.028060 0.084230 -3.569116 -0.859373 -9.115344 13.597008 -6.846075 28.536707 -4.196661 -4.264110 12.350093 10.000223 -1.499732 -6.501743 -0.933003 -3.572769 40.429539 -3.771190 -9.427810 -15.124550 -27.669367 -8.031035 4.014813 -49.219186 0.740052 -11.829869 -30.423135 -39.454846 6.297774 -3.422284 3.373726 0.098370 -0.049000 0.098510 0.175940 10.353346 15.137971 -0.363365 16.338822 43.070469 8.883666 -133.205195 32.500851 -77.893877 2.068216 -1.696152 0.060990 0.197890 -0.157210 0.038700 
-1.435740 16.535070 -3.477510 -1.586175 -12.710923 -3.008394 -15.400316 11.365854 4.657189 31.880118 0.444983 -27.255485 -16.408791 20.819298 41.556850 0.833480 10.728596 0.619736 0.500640 0.555490 0.221570 18.446153 -9.162988 3.431666 -27.161534 4.688836 -37.103124 11.398699 -12.419396 40.612155 -0.594618 -6.946224 1.686076 0.398330 -0.013880 0.082470 -3.604646 -0.821989 -9.126885 13.972521 -6.900158 28.846925 -4.466354 -4.242416 12.400075 10.034311 -1.498622 -6.535186 -0.939040 -3.785328 40.436594 -3.387370 -9.883120 -15.258470 -27.763643 -8.316257 4.126923 -48.816666 0.939140 -11.885568 -30.710143 -39.402572 6.357130 -3.423376 3.368362 0.103830 -0.047870 0.090090 0.173260 10.357743 15.460655 -0.335506 16.188684 43.257856 8.977363 -133.858290 32.189347 -78.254469 2.064266 -1.688970 0.051800 0.209140 -0.142930 0.039800 
-1.443720 16.522790 -3.480690 -1.436106 -12.886624 -3.482070 -15.383596 11.390403 4.619355 31.832709 0.438769 -26.957761 -16.064036 20.832686 42.020927 0.861122 10.761371 0.620802 0.483120 0.537220 0.197790 18.454482 -9.198395 3.438065 -27.186905 4.711995 -37.063893 11.212626 -12.508194 41.161500 -0.603931 -7.020028 1.669505 0.382130 0.001300 0.077540 -3.637412 -0.786773 -9.120164 14.366903 -7.113887 29.222464 -4.830624 -4.356440 12.780912 10.152218 -1.471235 -6.806102 -0.904590 -4.133997 40.879413 -2.744520 -10.586260 -15.048490 -27.517527 -9.029160 4.460136 -48.638866 1.130773 -12.110861 -30.800818 -39.430181 6.324969 -3.411175 3.371477 0.099770 -0.049810 0.082070 0.177060 9.904914 16.163637 -0.083048 15.120806 43.407233 8.435846 -134.162600 31.422297 -77.240493 2.081457 -1.674358 0.051940 0.215210 -0.134720 0.052470 
-1.435130 16.516840 -3.479240 -1.422294 -12.821263 -3.607174 -15.380107 11.402656 4.619786 31.732157 0.304616 -27.067422 -15.846071 20.848549 42.488256 0.858841 10.813133 0.610714 0.469280 0.511320 0.194740 18.454198 -9.202791 3.433295 -27.324380 4.613199 -36.938757 11.316985 -12.562166 41.035472 -0.598855 -7.015116 1.671478 0.372290 0.007250 0.069190 -3.640216 -0.812207 -9.123606 14.787917 -7.281072 29.457409 -4.846576 -4.421374 12.805432 10.202485 -1.324541 -6.971263 -0.753560 -4.654270 40.899332 -2.480460 -11.131390 -15.238160 -27.423462 -9.425747 4.595796 -48.876674 1.178584 -12.272792 -30.809901 -39.333255 6.231918 -3.409720 3.350022 0.114640 -0.054800 0.076180 0.171170 9.683638 16.422331 0.113625 14.102184 43.065266 7.635595 -134.735160 30.703649 -76.625943 2.086189 -1.664201 0.035560 0.228080 -0.124470 0.046000 
-1.432330 16.520410 -3.478530 -1.365057 -12.827444 -3.824310 -15.382406 11.472222 4.581252 31.517209 0.212882 -26.899083 -15.418514 20.690068 42.810189 0.840621 10.792402 0.612940 0.473210 0.510500 0.200870 18.440507 -9.226007 3.415406 -27.300604 4.588053 -36.750498 11.068445 -12.515967 41.271319 -0.603954 -7.016672 1.669944 0.374540 -0.000470 0.060330 -3.609590 -0.886103 -9.105236 14.817411 -7.350980 29.901388 -4.811093 -4.480955 12.762231 10.231431 -1.253247 -7.025187 -0.661825 -4.763616 40.617932 -1.982280 -11.245290 -15.974120 -27.452810 -9.579424 4.685226 -48.792591 1.542101 -12.544152 -31.059275 -39.600364 6.302857 -3.391574 3.345443 0.133990 -0.068340 0.079730 0.166920 9.636534 16.561389 0.151986 13.433669 42.894010 7.104723 -135.147264 30.250129 -76.285350 2.086739 -1.657851 0.026300 0.235590 -0.123440 0.037620 
-1.431640 16.526020 -3.472490 -1.251342 -12.805319 -4.003667 -15.363404 11.502153 4.539420 31.312747 0.155426 -26.530909 -15.416099 20.530928 42.524930 0.830630 10.734771 0.634291 0.456120 0.486640 0.185370 18.446333 -9.287719 3.402135 -27.313748 4.501378 -36.576466 10.796268 -12.444821 41.384740 -0.594530 -7.013234 1.671803 0.361470 0.009120 0.057840 -3.638045 -0.836419 -9.078586 14.723097 -7.488807 29.827964 -5.098416 -4.669702 12.949436 10.190348 -1.490944 -7.148820 -1.077939 -4.739325 40.604863 -1.708710 -11.525290 -15.906530 -27.074450 -9.521706 4.749415 -48.771697 1.903492 -12.750490 -31.572153 -39.936591 6.495147 -3.388581 3.348899 0.136100 -0.068500 0.070100 0.162990 9.338979 16.609817 0.355496 13.689852 42.789776 7.171345 -135.275021 30.042768 -76.381934 2.087862 -1.653944 0.019890 0.237400 -0.110800 0.039060 
-1.434520 16.540270 -3.469870 -1.334298 -12.806559 -4.161677 -15.362414 11.486360 4.564794 31.572519 0.221713 -26.363814 -15.677655 20.669637 42.403890 0.843899 10.764525 0.627007 0.455180 0.490240 0.177940 18.446052 -9.331013 3.351530 -26.916856 4.508609 -36.283283 10.534516 -12.249608 41.257399 -0.581879 -6.946408 1.695209 0.363650 0.012910 0.054660 -3.639995 -0.765039 -9.062760 14.513626 -7.368737 29.680687 -5.052934 -4.614453 13.124650 10.160534 -1.446298 -7.117418 -1.011014 -5.139496 40.465120 -1.373770 -11.986670 -16.114400 -26.688431 -9.258527 4.600261 -48.752938 1.705843 -12.615788 -31.811360 -39.564937 6.511082 -3.394034 3.343826 0.131440 -0.070480 0.068270 0.165250 9.076784 16.338555 0.411348 13.740918 42.854237 7.267239 -135.263928 29.610954 -75.650658 2.092173 -1.656097 0.021460 0.242080 -0.110100 0.045660 
-1.438200 16.555680 -3.472650 -1.223015 -12.736054 -4.293374 -15.397742 11.485755 4.626150 31.801776 0.218471 -26.440198 -16.111704 20.969546 42.435793 0.858588 10.869209 0.601225 0.426760 0.447150 0.170550 18.416331 -9.328431 3.279578 -26.591891 4.426365 -36.050650 10.005925 -11.989812 41.212798 -0.552821 -6.867992 1.725700 0.344320 0.028780 0.048080 -3.546416 -0.828567 -9.074458 13.320541 -6.998351 29.507842 -4.479852 -4.474779 13.339087 10.009476 -1.186237 -7.396252 -0.615623 -5.421728 40.866307 -1.411320 -12.192720 -15.478930 -26.048582 -9.474644 4.740882 -49.093816 1.643958 -12.624384 -32.241146 -39.820900 6.683269 -3.416473 3.321168 0.134590 -0.061910 0.051970 0.152380 8.810183 16.509123 0.699051 14.002449 42.623186 7.153630 -135.167251 29.316899 -75.389615 2.090258 -1.640729 0.003350 0.251710 -0.090610 0.038150 
